<?xml version="1.0" encoding="UTF-8"?>
<!-- Uploaded to: SVG Find, www.svgfind.com, Generator: SVG Find Mixer Tools -->
<svg fill="#000000" width="800px" height="800px" version="1.1" viewBox="144 144 512 512" xmlns="http://www.w3.org/2000/svg">
 <path d="m601.46 593.28c-11.074-9.6328-23.355-20.359-29.992-26.309-11.535-10.34-17.957-34.016-7.9102-59.25 1.7656-4.4336 1.4648-9.3633-0.81641-13.527-2.2578-4.1211-6.2031-6.9961-10.824-7.8789l-128.5-24.578 0.99219-4.9688 42.711 8.5234 11.402 2.2773-12.027-11.023-4.2227 2.6055-41.844-8.3516-1.9922 9.9883-85.652-16.383c-2.6328-0.50391-3.2891-2.7109-3.4258-3.375-0.13672-0.66406-0.41406-2.9453 1.8008-4.4531l93.871-63.957c5.7695-3.9258 9.2461-10.438 9.3047-17.418 0.0625-6.9766-3.3008-13.547-9-17.578l-62.859-44.453c-4.625-3.2734-10.43-4.5391-15.992-3.5117l-12.402 2.2969c-9.6289 1.7852-19.379-3.1133-23.715-11.859l-39.586-79.859c-5.0586-10.199-16.383-15.93-27.625-13.961l-11.176 1.9648c-12.258 2.1641-20.98 13.176-20.285 25.617 0.87109 15.504 7.1797 27.598 18.25 34.977 18.016 12.016 41.75 28.316 51.117 34.77 1.582 1.0898 2.4688 2.8906 2.3672 4.8125l-0.62109 11.773c-0.41406 7.8164 3.0039 15.387 9.1445 20.246l30.809 24.375c4.4414 3.5156 10.121 5.2812 15.801 4.8867l3.1992-0.20703c3.4648 0 6.4609 2.5859 6.9727 6.0195l3.3828 22.719c0.75 5.0352-1.5664 10.008-5.9023 12.672l-145.75 89.594c-4.3594 2.6836-6.6367 7.5-5.9375 12.574 0.69922 5.0742 4.1953 9.0938 9.1172 10.496l386.78 110.07c1.1133 0.31641 2.25 0.47656 3.3711 0.47656h0.003906c4.9219 0 9.2422-3.0547 11.012-7.7852 1.7656-4.7188 0.48047-9.7188-3.3516-13.051zm-6.1523 9.5c-0.058594 0.14062-0.67578 1.5195-2.1055 1.1016l-386.77-110.07c-1.457-0.41406-1.7773-1.6211-1.8438-2.125-0.070313-0.49609-0.089844-1.7461 1.1992-2.5391l145.75-89.598c7.8008-4.8008 11.973-13.754 10.625-22.816l-3.3828-22.719c-1.25-8.3633-8.5586-14.672-17.012-14.672-0.39844 0-0.80078 0.015624-1.2109 0.042968l-2.6953 0.1875c-3.1758 0.20312-6.3242-0.76562-8.7969-2.7188l-30.809-24.375c-3.5664-2.8203-5.5508-7.2148-5.3086-11.75l0.62109-11.773c0.28516-5.3945-2.3008-10.648-6.7461-13.707-9.3867-6.4648-33.164-22.801-51.242-34.855-8.4297-5.6211-13.055-14.738-13.746-27.102-0.41016-7.3125 4.7109-13.785 11.914-15.055l11.176-1.9727c6.8789-1.2031 13.742 2.3672 16.77 8.4727l39.586 79.859c5.4648 11.023 16.5 17.867 28.793 17.867 1.957 0 3.9297-0.17969 5.8633-0.53906l12.402-2.2969c2.918-0.54688 5.8906 0.125 8.2852 1.8203l62.859 44.453c3.0273 2.1406 4.7461 5.4961 4.7109 9.2031-0.03125 3.707-1.8047 7.0312-4.8711 9.1172l-93.879 63.965c-4.9258 3.3555-7.2344 9.0664-6.0234 14.902 1.2109 5.8359 5.5977 10.16 11.453 11.281l219.13 41.918c1.6641 0.31641 3.0234 1.3047 3.8359 2.7891 0.82422 1.5 0.92578 3.2852 0.28516 4.8945-11.766 29.555-3.5898 57.871 10.566 70.562 6.6641 5.9727 18.988 16.738 30.105 26.41 0.25 0.21094 0.90625 0.77734 0.51172 1.8398z"/>
</svg>