<?xml version="1.0" encoding="UTF-8"?>
<!-- Uploaded to: SVG Find, www.svgfind.com, Generator: SVG Find Mixer Tools -->
<svg fill="#000000" width="800px" height="800px" version="1.1" viewBox="144 144 512 512" xmlns="http://www.w3.org/2000/svg">
 <path d="m608.99 238.08-24.379-46.23c-2.7734-5.2617-9.6992-7.5156-15.059-4.8398-15.125 7.5781-57.785 28.961-74.805 37.527-15.145 7.6211-33.227 35.805-45.73 58.109-4.9688 8.8555-5.8594 19.43-2.4453 29.02l0.71875 2.0156c3.9297 11.02 2.2734 23.324-4.418 32.922l-20.031 28.691c-15.758 22.578-48.516 28.16-52.203 28.719-5.3086 0.8125-21.578 1.2578-45.809 1.2578-5.5625 0-10.422-0.023438-13.742-0.046876-1.0039-0.007812-1.9141-0.5625-2.3945-1.4492l-5.0547-9.4141c-3.3906-6.3164-11.457-9.1875-18.098-6.4336-14 5.832-48.242 20.117-63.676 26.73-22.969 9.8438-24.562 31.012-24.211 53.691 0.17969 11.918-3.6328 20.07-6.8633 24.812-3.3516 4.9219-3.0977 11.34 0.63281 15.961 12.996 16.094 21.109 30.09 24.797 37.004 2.1133 3.9648 4.7695 7.5938 7.8906 10.785l28.191 28.812c3.9219 4.0039 9.7188 5.8945 15.344 4.832l40.375-7.5703c1.5547-0.28906 3.1211 0.30469 4.0898 1.5078 4.75 5.9102 8.3906 12.52 10.824 19.648 2.0352 5.9609 7.6289 9.9648 13.914 9.9648 3.8047 0 7.4141-1.4805 10.164-4.1641l42.273-41.309c2.5938-2.5391 4.9922-5.332 7.125-8.3047 8.0312-11.215 27.871-38.715 38.57-51.781 4.1289-5.0391 10.27-7.5938 18.258-7.5938 3.2109 0 6.6211 0.41016 10.125 1.2188 5.7148 1.3281 11.922-1.0781 15.32-5.9336l33.094-47.406 4.0781 2.8164-24.91 36.078-6.6523 9.6328 14.984-6.7227-0.72266-4.9453 24.402-35.348-8.2617-5.7031 77.625-111.2c3.3203-4.7617 4.5391-10.523 3.4219-16.23-1.1133-5.6914-4.4062-10.559-9.2734-13.707-5.625-3.6445-11.672-7.1914-17.961-10.547-0.625-0.33594-0.75-0.89063-0.76953-1.1953-0.019531-0.37109 0.066407-0.89062 0.61719-1.2773l33.695-23.684c9.1914-6.4375 12.168-18.793 6.9375-28.723zm-12.805 20.375-33.695 23.684c-3.3438 2.3477-5.1875 6.1836-4.9375 10.262s2.5469 7.6602 6.1562 9.5859c6.0391 3.2188 11.832 6.6211 17.223 10.105 2.5156 1.6289 4.2188 4.1484 4.793 7.0977 0.58203 2.957-0.050781 5.9453-1.7773 8.4141l-113.64 162.79c-1.043 1.4883-2.8945 2.2305-4.6484 1.832-4.2539-0.98438-8.4336-1.4805-12.422-1.4805-11.039 0-20.086 3.9219-26.16 11.34-10.891 13.297-30.887 41.012-38.973 52.305-1.7812 2.4883-3.7852 4.8203-5.9609 6.9453l-42.27 41.309c-1.0664 1.0391-2.2344 1.2539-3.0312 1.2539-1.4766 0-3.4727-0.79688-4.2383-3.0508-2.8164-8.2539-7.0312-15.906-12.531-22.746-2.7578-3.4336-6.8633-5.3984-11.27-5.3984-0.88672 0-1.7812 0.078125-2.668 0.24609l-40.375 7.5703c-2.25 0.42578-4.5859-0.33203-6.1562-1.9375l-28.191-28.812c-2.4453-2.5-4.5234-5.3438-6.1797-8.4492-3.8516-7.2344-12.336-21.867-25.859-38.617-0.88281-1.0938-0.94141-2.6172-0.14453-3.7891 4.0664-5.9609 8.8594-16.129 8.6406-30.719-0.37109-24 2.3203-37.418 18.016-44.148 15.395-6.5938 49.594-20.863 63.586-26.688 1.8945-0.79688 4.1992 0.035157 5.168 1.8398l5.0469 9.4062c2.2461 4.1836 6.5859 6.8047 11.328 6.8359 3.3438 0.023438 8.2266 0.046876 13.812 0.046876 25.445 0 41.379-0.46484 47.348-1.375 4.1289-0.62891 40.844-6.9062 59.039-32.973l20.031-28.691c8.5781-12.297 10.699-28.07 5.6602-42.199l-0.71875-2.0156c-2.4258-6.8008-1.7891-14.305 1.7305-20.59 16.449-29.34 31.547-49.016 41.414-53.984 17.02-8.5625 59.668-29.938 75.266-37.633 0.32031 0 0.74219 0.15234 0.96875 0.58203l24.379 46.234c2.8477 5.3906 1.2305 12.105-3.7617 15.609z"/>
</svg>