<?xml version="1.0" encoding="UTF-8"?>
<!-- Uploaded to: SVG Find, www.svgfind.com, Generator: SVG Find Mixer Tools -->
<svg fill="#000000" width="800px" height="800px" version="1.1" viewBox="144 144 512 512" xmlns="http://www.w3.org/2000/svg">
 <path d="m604.52 469.04c-2.6992-9.8867-9.8477-17.953-19.125-21.582-6.1992-2.418-13.703-3.6016-22.953-3.6016-9.7188 0-20.082 1.2812-30.109 2.5195-9.4492 1.1641-18.371 2.2656-26.199 2.2656-5.6289 0-10.043-0.57812-13.5-1.7656-13.203-4.5273-22.57-12.324-25.695-21.395-1.5352-4.457-1.2891-8.7422 0.67578-11.77 3.6953-5.6836 19.152-27.109 32.789-46.016 11.914-16.52 23.164-32.117 26.102-36.543 6.4023-9.6445 10.59-17.766 6.1406-34.523-2.6289-9.9023-8.7578-14.922-18.211-14.922-4.9258 0-10.176 1.3555-14.812 2.5586-13.332 3.4492-51.852 35.387-62.668 47.875-4.418 5.1055-17.867 20.645-31.746 20.645-3.4844 0-6.7969-0.92187-10.125-2.8203-12.691-7.2383-12.871-20.781-12.094-44.098 0.15234-4.5898 0.30859-9.3477 0.32031-14.227 0.0625-29.84-36.5-48.219-53.188-52.02l-2.8516-0.64453c-12.934-2.8828-32.473-7.2344-41.922-19.539-11.727-15.277-23.012-27.125-52.215-29.176-7.5156-0.55078-15.555 1.3398-24.207 5.543-11.785 5.7148-19.926 16.383-22.332 29.258-2.4062 12.867 1.332 25.742 10.25 35.32l164.45 176.69-3.7383 3.5312-29.734-31.496-7.9414-8.4102 3.4102 15.863 4.9258 0.31641 29.133 30.859 7.3828-6.9688 125.59 134.93c7.4531 8.0039 34.184 34.117 65.336 34.117 14.039 0 26.895-5.3438 38.211-15.875 32.203-29.961 18.176-97.328 10.648-124.9zm-17.52 117.52c-9.3867 8.7422-19.934 13.172-31.336 13.172-21.516 0-44.039-15.965-57.949-30.906l-293.48-315.31c-6.7109-7.2109-9.5234-16.906-7.7148-26.59 1.8125-9.6953 7.9414-17.727 16.816-22.035 6.3164-3.0664 12.145-4.6172 17.32-4.6172 0.58984 0 1.1797 0.019531 1.7695 0.058594 25.117 1.7695 34.094 11.148 44.918 25.254 11.684 15.223 33.379 20.055 47.738 23.254l2.8086 0.625c12.125 2.7656 45.387 17.887 45.336 42.164-0.011718 4.7695-0.16406 9.4219-0.31641 13.914-0.72656 21.902-1.418 42.59 17.18 53.203 4.8281 2.75 9.9141 4.1445 15.129 4.1445 16.574 0 30.414-13.773 39.379-24.133 11.164-12.891 48.031-42.242 57.562-44.711 4.0508-1.043 8.6445-2.2305 12.285-2.2305 4 0 6.8125 1.2422 8.457 7.4219 3.2969 12.426 1.1875 17.332-4.7969 26.352-2.8281 4.2617-14.02 19.781-25.875 36.215-14.375 19.93-29.238 40.535-33.066 46.426-3.6758 5.6523-4.3125 13.145-1.7578 20.562 4.1484 12.027 15.797 22.105 31.965 27.652 4.5273 1.5508 10.016 2.3047 16.773 2.3047 8.4492 0 17.672-1.1367 27.434-2.3398 9.7227-1.2031 19.773-2.4453 28.871-2.4453 7.9648 0 14.27 0.95703 19.277 2.9141 6.3164 2.4688 11.195 8.0117 13.059 14.84 5.4922 20.117 21.172 87.898-7.7852 114.84z"/>
</svg>